<svg xmlns="http://www.w3.org/2000/svg" width="520" height="590" viewBox="0 0 520 590">
  <rect width="100%" height="100%" fill="#fcfbf8"/>
  <text x="260.00" y="34" text-anchor="middle" font-size="22" fill="#1c1917" font-family="Microsoft YaHei, PingFang SC, sans-serif">爽世 MBTI 八维图</text>
  <g transform="translate(0,24)">
    <polygon points="260.00,224.00 285.46,234.54 296.00,260.00 285.46,285.46 260.00,296.00 234.54,285.46 224.00,260.00 234.54,234.54" fill="none" stroke="#d6d3d1" stroke-width="1" /><polygon points="260.00,188.00 310.91,209.09 332.00,260.00 310.91,310.91 260.00,332.00 209.09,310.91 188.00,260.00 209.09,209.09" fill="none" stroke="#d6d3d1" stroke-width="1" /><polygon points="260.00,152.00 336.37,183.63 368.00,260.00 336.37,336.37 260.00,368.00 183.63,336.37 152.00,260.00 183.63,183.63" fill="none" stroke="#d6d3d1" stroke-width="1" /><polygon points="260.00,116.00 361.82,158.18 404.00,260.00 361.82,361.82 260.00,404.00 158.18,361.82 116.00,260.00 158.18,158.18" fill="none" stroke="#d6d3d1" stroke-width="1" /><polygon points="260.00,80.00 387.28,132.72 440.00,260.00 387.28,387.28 260.00,440.00 132.72,387.28 80.00,260.00 132.72,132.72" fill="none" stroke="#d6d3d1" stroke-width="1" />
    <line x1="260.00" y1="260.00" x2="260.00" y2="80.00" stroke="#e7e5e4" stroke-width="1.2" /><line x1="260.00" y1="260.00" x2="387.28" y2="132.72" stroke="#e7e5e4" stroke-width="1.2" /><line x1="260.00" y1="260.00" x2="440.00" y2="260.00" stroke="#e7e5e4" stroke-width="1.2" /><line x1="260.00" y1="260.00" x2="387.28" y2="387.28" stroke="#e7e5e4" stroke-width="1.2" /><line x1="260.00" y1="260.00" x2="260.00" y2="440.00" stroke="#e7e5e4" stroke-width="1.2" /><line x1="260.00" y1="260.00" x2="132.72" y2="387.28" stroke="#e7e5e4" stroke-width="1.2" /><line x1="260.00" y1="260.00" x2="80.00" y2="260.00" stroke="#e7e5e4" stroke-width="1.2" /><line x1="260.00" y1="260.00" x2="132.72" y2="132.72" stroke="#e7e5e4" stroke-width="1.2" />
    <polygon points="260.00,109.79 354.63,165.37 270.62,260.00 368.12,368.12 260.00,289.79 227.35,292.65 90.62,260.00 240.84,240.84" fill="rgba(14,116,144,0.18)" stroke="#0f766e" stroke-width="3" />
    <text x="260.00" y="51.20" text-anchor="middle" dominant-baseline="middle" font-size="18" fill="#292524" font-family="Microsoft YaHei, PingFang SC, sans-serif">E</text><text x="407.64" y="112.36" text-anchor="middle" dominant-baseline="middle" font-size="18" fill="#292524" font-family="Microsoft YaHei, PingFang SC, sans-serif">S</text><text x="468.80" y="260.00" text-anchor="middle" dominant-baseline="middle" font-size="18" fill="#292524" font-family="Microsoft YaHei, PingFang SC, sans-serif">T</text><text x="407.64" y="407.64" text-anchor="middle" dominant-baseline="middle" font-size="18" fill="#292524" font-family="Microsoft YaHei, PingFang SC, sans-serif">J</text><text x="260.00" y="468.80" text-anchor="middle" dominant-baseline="middle" font-size="18" fill="#292524" font-family="Microsoft YaHei, PingFang SC, sans-serif">I</text><text x="112.36" y="407.64" text-anchor="middle" dominant-baseline="middle" font-size="18" fill="#292524" font-family="Microsoft YaHei, PingFang SC, sans-serif">N</text><text x="51.20" y="260.00" text-anchor="middle" dominant-baseline="middle" font-size="18" fill="#292524" font-family="Microsoft YaHei, PingFang SC, sans-serif">F</text><text x="112.36" y="112.36" text-anchor="middle" dominant-baseline="middle" font-size="18" fill="#292524" font-family="Microsoft YaHei, PingFang SC, sans-serif">P</text>
    <text x="260.00" y="26.00" text-anchor="middle" dominant-baseline="middle" font-size="13" fill="#78716c" font-family="Microsoft YaHei, PingFang SC, sans-serif">83.45</text><text x="425.46" y="94.54" text-anchor="middle" dominant-baseline="middle" font-size="13" fill="#78716c" font-family="Microsoft YaHei, PingFang SC, sans-serif">74.35</text><text x="494.00" y="260.00" text-anchor="middle" dominant-baseline="middle" font-size="13" fill="#78716c" font-family="Microsoft YaHei, PingFang SC, sans-serif">5.9</text><text x="425.46" y="425.46" text-anchor="middle" dominant-baseline="middle" font-size="13" fill="#78716c" font-family="Microsoft YaHei, PingFang SC, sans-serif">84.95</text><text x="260.00" y="494.00" text-anchor="middle" dominant-baseline="middle" font-size="13" fill="#78716c" font-family="Microsoft YaHei, PingFang SC, sans-serif">16.55</text><text x="94.54" y="425.46" text-anchor="middle" dominant-baseline="middle" font-size="13" fill="#78716c" font-family="Microsoft YaHei, PingFang SC, sans-serif">25.65</text><text x="26.00" y="260.00" text-anchor="middle" dominant-baseline="middle" font-size="13" fill="#78716c" font-family="Microsoft YaHei, PingFang SC, sans-serif">94.1</text><text x="94.54" y="94.54" text-anchor="middle" dominant-baseline="middle" font-size="13" fill="#78716c" font-family="Microsoft YaHei, PingFang SC, sans-serif">15.05</text>
    <circle cx="260.00" cy="260.00" r="4" fill="#0f766e" />
  </g>
</svg>
